<?xml version="1.0" standalone="no"?>
<!DOCTYPE svg PUBLIC "-//W3C//DTD SVG 20010904//EN"
 "http://www.w3.org/TR/2001/REC-SVG-20010904/DTD/svg10.dtd">
<svg version="1.0" xmlns="http://www.w3.org/2000/svg"
 width="120px" height="120px" viewBox="0 0 512.000000 512.000000"
 preserveAspectRatio="xMidYMid meet">

<g transform="translate(0.000000,512.000000) scale(0.100000,-0.100000)"
fill="#000000" stroke="none">
<path d="M931 5106 c-47 -26 -50 -45 -51 -293 l0 -233 -180 0 c-117 0 -188 -4
-205 -12 -52 -23 -55 -43 -55 -348 l0 -280 -180 0 c-197 0 -226 -6 -248 -55
-9 -20 -12 -427 -12 -1714 0 -1651 0 -1689 20 -1765 25 -99 68 -174 140 -246
72 -72 147 -115 246 -140 76 -20 115 -20 2154 -20 2039 0 2078 0 2154 20 99
25 174 68 246 140 72 72 115 147 140 246 20 76 20 116 20 2356 0 2480 4 2319
-55 2346 -40 19 -4100 17 -4134 -2z m3987 -2418 l-3 -2233 -27 -55 c-35 -71
-97 -133 -167 -168 l-56 -27 -1852 -3 -1852 -2 31 46 c17 25 42 78 57 117 l26
72 3 735 c2 544 0 742 -9 763 -13 30 -55 57 -89 57 -29 0 -76 -26 -86 -47 -5
-10 -11 -349 -14 -753 l-5 -735 -27 -55 c-35 -71 -97 -133 -167 -168 -48 -23
-69 -27 -141 -27 -72 0 -93 4 -140 27 -71 35 -133 97 -168 167 l-27 56 -3
1643 -2 1642 120 0 120 0 0 -1560 c0 -1187 3 -1565 12 -1585 13 -29 55 -55 88
-55 33 0 75 26 88 55 9 20 12 470 12 1905 l0 1880 120 0 120 0 0 -805 c0 -875
-2 -847 55 -873 33 -15 57 -15 90 0 57 26 55 -26 55 1143 l0 1075 1920 0 1920
0 -2 -2232z"/>
<path d="M1411 4446 c-49 -27 -50 -34 -51 -444 0 -416 1 -426 55 -450 20 -9
398 -12 1586 -12 1696 0 1601 -3 1627 55 17 37 17 773 0 810 -26 58 70 55
-1630 55 -1278 -1 -1567 -3 -1587 -14z m3029 -446 l0 -260 -1440 0 -1440 0 0
260 0 260 1440 0 1440 0 0 -260z"/>
<path d="M1411 3246 c-52 -29 -50 11 -51 -1044 0 -1068 -2 -1024 55 -1050 37
-17 1593 -17 1630 0 57 26 55 -18 55 1048 0 1066 2 1022 -55 1048 -40 18
-1601 16 -1634 -2z m1489 -1046 l0 -860 -670 0 -670 0 0 860 0 860 670 0 670
0 0 -860z"/>
<path d="M3431 3246 c-67 -37 -65 -143 4 -174 37 -17 1113 -17 1150 0 29 13
55 55 55 88 0 33 -26 75 -55 88 -40 18 -1121 16 -1154 -2z"/>
<path d="M3431 2766 c-67 -37 -65 -143 4 -174 37 -17 1113 -17 1150 0 29 13
55 55 55 88 0 33 -26 75 -55 88 -40 18 -1121 16 -1154 -2z"/>
<path d="M944 2431 c-56 -24 -72 -109 -30 -158 20 -23 32 -28 71 -28 60 0 95
35 95 95 0 70 -72 118 -136 91z"/>
<path d="M3431 2286 c-67 -37 -65 -143 4 -174 37 -17 1113 -17 1150 0 29 13
55 55 55 88 0 33 -26 75 -55 88 -40 18 -1121 16 -1154 -2z"/>
<path d="M3431 1806 c-67 -37 -65 -143 4 -174 37 -17 1113 -17 1150 0 29 13
55 55 55 88 0 33 -26 75 -55 88 -40 18 -1121 16 -1154 -2z"/>
<path d="M3431 1326 c-67 -37 -65 -143 4 -174 37 -17 1113 -17 1150 0 29 13
55 55 55 88 0 33 -26 75 -55 88 -40 18 -1121 16 -1154 -2z"/>
<path d="M1411 846 c-67 -37 -65 -143 4 -174 20 -9 398 -12 1586 -12 1331 0
1564 2 1588 14 66 35 66 137 0 172 -40 20 -3141 21 -3178 0z"/>
</g>
</svg>
