<?xml version="1.0" standalone="no"?>
<!DOCTYPE svg PUBLIC "-//W3C//DTD SVG 20010904//EN"
 "http://www.w3.org/TR/2001/REC-SVG-20010904/DTD/svg10.dtd">
<svg version="1.0" xmlns="http://www.w3.org/2000/svg"
 width="150px" height="150px" viewBox="0 0 512.000000 512.000000"
 preserveAspectRatio="xMidYMid meet">

<g transform="translate(0.000000,512.000000) scale(0.100000,-0.100000)"
fill="#000000" stroke="none">
<path d="M1470 4608 c-26 -14 -57 -41 -75 -66 -26 -38 -30 -52 -30 -112 0 -60
4 -74 30 -112 18 -25 47 -51 72 -63 l42 -20 1 -262 0 -263 -667 0 c-628 0
-670 -2 -708 -19 -152 -70 -154 -285 -3 -362 l38 -19 2 -1401 c3 -1231 5
-1401 18 -1409 9 -6 903 -10 2370 -10 1467 0 2361 4 2370 10 13 8 15 178 18
1409 l2 1401 39 19 c146 75 147 285 1 359 l-44 22 -668 0 -668 0 0 263 1 262
42 20 c25 12 54 38 72 63 26 38 30 52 30 112 0 60 -4 74 -30 112 -18 25 -49
52 -75 66 l-44 22 -1046 0 -1046 0 -44 -22z m2124 -82 c43 -18 66 -51 66 -96
0 -42 -20 -75 -60 -95 -44 -23 -2036 -23 -2080 0 -40 20 -60 53 -60 95 0 44
23 78 64 96 47 20 2021 21 2070 0z m-84 -2121 l0 -1815 -205 0 -205 0 0 543
c0 453 -2 546 -14 563 -14 18 -31 19 -526 19 -495 0 -512 -1 -526 -19 -12 -17
-14 -110 -14 -563 l0 -543 -205 0 -205 0 0 1815 0 1815 950 0 950 0 0 -1815z
m-2000 1105 l0 -110 -666 2 -666 3 -29 33 c-53 60 -30 149 44 171 18 5 315 10
675 10 l642 1 0 -110z m3412 100 c79 -22 104 -111 49 -172 l-29 -33 -666 -3
-666 -2 0 110 0 110 638 0 c406 0 650 -4 674 -10z m-3412 -1665 l0 -1355 -620
0 -620 0 0 1355 0 1355 620 0 620 0 0 -1355z m3340 0 l0 -1355 -620 0 -620 0
0 1355 0 1355 620 0 620 0 0 -1355z m-2340 -845 l0 -520 -192 2 -193 3 -3 505
c-1 278 0 511 3 518 3 9 52 12 195 12 l190 0 0 -520z m485 0 l0 -515 -192 -3
-193 -2 0 520 0 520 193 -2 192 -3 0 -515z"/>
<path d="M2424 4026 c-16 -12 -20 -29 -22 -105 l-4 -91 -87 0 c-120 0 -121 -1
-121 -162 0 -157 1 -158 122 -158 l86 0 4 -93 c2 -60 8 -100 17 -110 11 -14
34 -17 138 -17 68 0 133 5 144 10 17 10 19 22 19 110 l0 100 88 0 c122 0 122
1 122 162 0 157 -1 158 -123 158 l-87 0 0 89 c0 122 1 121 -154 121 -90 0
-127 -4 -142 -14z m196 -175 c0 -68 4 -93 16 -105 12 -12 37 -16 105 -16 l89
0 0 -60 0 -60 -89 0 c-118 0 -121 -3 -121 -126 l0 -94 -60 0 -60 0 0 98 c0 63
-4 102 -12 110 -8 8 -46 12 -105 12 l-93 0 0 60 0 60 93 0 c59 0 97 4 105 12
7 7 12 45 12 98 0 48 3 90 7 93 3 4 30 7 60 7 l53 0 0 -89z"/>
<path d="M2226 3028 c-13 -18 -16 -56 -16 -205 0 -170 1 -184 20 -203 19 -19
33 -20 330 -20 297 0 311 1 330 20 19 19 20 33 20 203 0 149 -3 187 -16 205
-15 22 -16 22 -334 22 -318 0 -319 0 -334 -22z m582 -200 l-3 -123 -245 0
-245 0 -3 123 -3 122 251 0 251 0 -3 -122z"/>
<path d="M2227 2362 c-15 -16 -17 -46 -17 -205 0 -175 1 -188 20 -207 20 -20
30 -21 336 -18 299 3 316 4 330 22 21 30 20 373 -2 404 -15 22 -16 22 -333 22
-295 0 -319 -1 -334 -18z m581 -204 l-3 -123 -245 0 -245 0 -3 123 -3 122 251
0 251 0 -3 -122z"/>
<path d="M562 3038 c-9 -9 -12 -69 -12 -209 0 -166 2 -200 16 -213 13 -14 57
-16 325 -16 296 0 310 1 329 20 19 19 20 33 20 209 0 159 -3 192 -16 205 -13
14 -58 16 -333 16 -233 0 -320 -3 -329 -12z m578 -213 l0 -125 -245 0 -245 0
0 125 0 125 245 0 245 0 0 -125z"/>
<path d="M562 2368 c-9 -9 -12 -69 -12 -209 0 -193 1 -198 22 -213 19 -14 67
-16 325 -16 290 0 304 1 323 20 19 19 20 33 20 206 0 109 -4 193 -10 205 -10
18 -25 19 -333 19 -238 0 -326 -3 -335 -12z m578 -213 l0 -125 -245 0 -245 0
0 125 0 125 245 0 245 0 0 -125z"/>
<path d="M571 1703 c-21 -17 -22 -24 -19 -218 l3 -199 25 -13 c19 -10 96 -13
328 -11 287 3 304 4 318 22 11 16 14 61 14 208 0 175 -1 189 -20 208 -19 19
-33 20 -324 20 -274 0 -306 -2 -325 -17z m564 -213 l0 -125 -242 -3 -243 -2 0
130 0 130 243 -2 242 -3 0 -125z"/>
<path d="M3896 3034 c-13 -13 -16 -46 -16 -209 0 -189 1 -194 22 -209 34 -24
629 -24 652 0 14 13 16 47 16 213 0 140 -3 200 -12 209 -9 9 -96 12 -329 12
-275 0 -320 -2 -333 -16z m574 -209 l0 -125 -245 0 -245 0 0 125 0 125 245 0
245 0 0 -125z"/>
<path d="M3890 2361 c-6 -12 -10 -96 -10 -205 0 -173 1 -187 20 -206 19 -19
33 -20 323 -20 258 0 306 2 325 16 21 15 22 20 22 213 0 140 -3 200 -12 209
-9 9 -97 12 -335 12 -308 0 -323 -1 -333 -19z m580 -206 l0 -125 -245 0 -245
0 0 125 0 125 245 0 245 0 0 -125z"/>
<path d="M3900 1700 c-19 -19 -20 -33 -20 -208 0 -147 3 -192 14 -208 14 -18
31 -19 318 -22 232 -2 309 1 328 11 l25 13 3 199 c3 194 2 201 -19 218 -19 15
-51 17 -325 17 -291 0 -305 -1 -324 -20z m570 -210 l0 -130 -242 2 -243 3 -3
114 c-1 63 0 121 2 128 4 10 57 13 246 13 l240 0 0 -130z"/>
</g>
</svg>
