<?xml version="1.0" standalone="no"?>
<!DOCTYPE svg PUBLIC "-//W3C//DTD SVG 20010904//EN"
 "http://www.w3.org/TR/2001/REC-SVG-20010904/DTD/svg10.dtd">
<svg version="1.0" xmlns="http://www.w3.org/2000/svg"
 width="150px" height="150px" viewBox="0 0 512.000000 512.000000"
 preserveAspectRatio="xMidYMid meet">

<g transform="translate(0.000000,512.000000) scale(0.100000,-0.100000)"
fill="#000000" stroke="none">
<path d="M1125 4875 c-25 -24 -25 -26 -25 -205 l0 -180 -194 0 c-176 0 -196
-2 -217 -19 l-24 -19 -3 -519 -3 -520 -60 -11 c-166 -31 -299 -144 -362 -310
l-22 -57 0 -1305 0 -1305 23 -47 c31 -63 102 -124 165 -143 44 -13 317 -15
2157 -15 1840 0 2113 2 2157 15 63 19 134 80 165 143 l23 47 0 1075 0 1075
-23 65 c-31 90 -87 167 -159 220 l-62 45 0 973 -1 973 -25 24 -24 25 -1731 0
-1731 0 -24 -25z m3395 -1015 l0 -900 -150 0 -150 0 0 744 0 745 -26 20 -27
21 -1463 0 -1464 0 0 135 0 135 1640 0 1640 0 0 -900z m-440 -205 l0 -695
-704 0 -705 0 -182 203 c-100 111 -193 212 -206 225 l-24 22 -730 0 -729 0 0
470 0 470 1640 0 1640 0 0 -695z m-1705 -576 c94 -104 185 -204 203 -222 l33
-32 957 -5 957 -5 46 -23 c75 -37 125 -87 161 -160 l33 -67 0 -1057 c0 -1053
0 -1057 -21 -1085 -11 -15 -36 -36 -55 -45 -32 -17 -154 -18 -2129 -18 -1975
0 -2097 1 -2129 18 -19 9 -44 30 -55 45 -21 28 -21 30 -21 1310 l0 1282 23 49
c45 98 106 157 195 187 48 17 109 18 842 18 l790 0 170 -190z"/>
<path d="M1120 4110 c-27 -27 -25 -66 5 -95 l24 -25 964 0 c923 0 966 1 988
18 28 23 30 73 4 102 -18 20 -29 20 -992 20 -960 0 -973 0 -993 -20z"/>
<path d="M1120 3750 c-27 -27 -25 -66 5 -95 l24 -25 964 0 c923 0 966 1 988
18 28 23 30 73 4 102 -18 20 -29 20 -992 20 -960 0 -973 0 -993 -20z"/>
<path d="M2270 2240 c-19 -19 -20 -33 -20 -205 l0 -185 -185 0 c-172 0 -186
-1 -205 -20 -19 -19 -20 -33 -20 -284 0 -245 1 -265 19 -287 19 -23 24 -24
205 -27 l186 -3 0 -179 c0 -160 2 -180 19 -201 l19 -24 272 0 272 0 19 24 c17
21 19 41 19 201 l0 179 186 3 c181 3 186 4 205 27 18 22 19 42 19 287 0 251
-1 265 -20 284 -19 19 -33 20 -205 20 l-185 0 0 185 c0 172 -1 186 -20 205
-19 19 -33 20 -290 20 -257 0 -271 -1 -290 -20z m460 -299 c0 -243 -17 -225
224 -229 l186 -3 0 -170 0 -169 -185 0 c-243 0 -225 18 -225 -225 l0 -185
-170 0 -170 0 0 185 c0 172 -1 186 -20 205 -19 19 -33 20 -205 20 l-185 0 0
169 0 170 186 3 c241 4 224 -14 224 229 l0 179 170 0 170 0 0 -179z"/>
</g>
</svg>
