<?xml version="1.0" standalone="no"?>
<!DOCTYPE svg PUBLIC "-//W3C//DTD SVG 20010904//EN"
 "http://www.w3.org/TR/2001/REC-SVG-20010904/DTD/svg10.dtd">
<svg version="1.0" xmlns="http://www.w3.org/2000/svg"
 width="120px" height="120px" viewBox="0 0 512.000000 512.000000"
 preserveAspectRatio="xMidYMid meet">

<g transform="translate(0.000000,512.000000) scale(0.100000,-0.100000)"
fill="#000000" stroke="none">
<path d="M2400 4926 c-187 -40 -326 -119 -456 -259 -114 -122 -171 -235 -206
-407 -58 -278 40 -577 252 -773 153 -140 370 -227 570 -227 324 0 644 211 770
508 53 125 64 185 64 337 -1 122 -4 151 -28 228 -44 148 -96 237 -205 351
-105 109 -226 182 -377 227 -90 27 -292 34 -384 15z m295 -201 c182 -38 351
-169 433 -335 23 -47 42 -88 42 -92 0 -3 -33 -14 -72 -24 -53 -13 -107 -18
-193 -17 -190 2 -319 45 -445 148 -30 24 -66 47 -81 50 -39 9 -83 -17 -119
-70 -39 -57 -78 -77 -145 -76 -42 0 -123 21 -143 37 -2 1 11 31 29 66 47 88
164 203 256 251 138 72 289 93 438 62z m-250 -554 c179 -107 441 -144 680 -95
39 8 71 14 73 14 6 0 0 -63 -13 -124 -19 -92 -83 -217 -146 -288 -68 -77 -181
-151 -282 -184 -70 -24 -99 -28 -197 -28 -98 0 -127 4 -197 28 -250 82 -423
306 -440 567 l-6 89 43 -15 c73 -26 155 -35 221 -24 67 11 143 45 173 78 11
12 21 21 23 21 2 0 33 -17 68 -39z"/>
<path d="M3614 3460 c-51 -11 -144 -45 -644 -242 -223 -88 -414 -160 -425
-160 -11 0 -209 77 -440 172 -513 209 -544 220 -604 220 -67 0 -148 -43 -184
-97 -30 -45 -67 -174 -67 -233 0 -36 -2 -38 -65 -69 -63 -31 -106 -72 -158
-150 -90 -133 -746 -1198 -771 -1251 -27 -57 -31 -75 -30 -145 1 -88 21 -146
68 -202 l27 -32 -160 -305 -161 -304 0 -202 c0 -219 5 -246 55 -268 38 -17
4972 -17 5010 0 50 22 55 49 55 270 l0 203 -186 277 -186 277 26 33 c49 65 69
127 69 208 0 41 -7 93 -16 116 -8 22 -169 299 -357 615 -189 316 -359 601
-378 634 -56 95 -130 183 -177 210 l-42 25 -6 120 c-8 182 -49 254 -158 279
-24 6 -46 10 -49 10 -3 -1 -23 -5 -46 -9z m50 -232 c3 -18 7 -75 8 -126 l3
-93 -219 -70 c-247 -80 -266 -92 -266 -165 0 -35 5 -47 31 -68 19 -16 43 -26
63 -26 17 0 112 27 211 60 98 33 181 58 184 55 2 -3 6 -54 9 -113 l4 -107
-212 -68 c-240 -77 -260 -90 -260 -163 0 -35 5 -47 31 -68 19 -16 43 -26 63
-26 17 0 111 27 209 59 l177 60 0 -145 c0 -109 -3 -144 -12 -144 -7 1 -42 7
-78 15 -121 27 -241 16 -328 -29 -49 -25 -119 -102 -149 -164 -26 -52 -28 -67
-28 -167 0 -102 2 -115 31 -175 35 -74 103 -146 168 -178 25 -13 109 -36 188
-53 79 -16 150 -32 158 -35 17 -6 -52 -37 -480 -209 -487 -196 -577 -228 -638
-227 -50 0 -309 84 -932 300 l-145 50 -3 45 -3 45 98 17 c226 39 271 56 347
132 47 46 92 138 107 217 22 123 -19 256 -106 340 -93 91 -225 112 -428 70
l-27 -6 0 449 c0 587 12 721 62 731 9 2 241 -88 514 -198 277 -112 512 -202
529 -202 16 0 260 90 540 200 281 110 517 202 525 205 36 13 49 7 54 -25z
m-2424 -786 l0 -408 -112 -18 c-175 -27 -209 -37 -235 -62 -54 -54 -9 -164 68
-164 18 0 161 22 318 49 157 28 310 53 339 57 139 18 220 -86 178 -229 -16
-55 -61 -108 -103 -121 -10 -3 -254 -46 -543 -96 -351 -62 -541 -90 -572 -87
-62 5 -125 47 -145 95 -13 30 -13 45 -5 79 14 51 9 43 345 580 152 244 309
496 349 560 63 104 108 171 116 172 1 1 2 -183 2 -407z m3030 -306 c199 -335
367 -624 372 -644 21 -77 -42 -162 -123 -162 -43 0 -1100 215 -1126 229 -29
15 -71 63 -82 94 -18 47 -13 133 10 178 24 48 81 78 150 79 25 0 168 -25 319
-55 151 -30 286 -55 301 -55 15 0 41 12 58 26 26 22 31 33 31 70 0 77 -23 90
-235 132 l-40 8 -7 319 c-4 176 -8 341 -10 367 -2 35 0 44 8 35 6 -7 174 -286
374 -621z m-3020 -928 c0 -65 31 -131 73 -157 26 -16 310 -117 807 -287 l55
-19 -477 -3 c-262 -1 -693 -1 -957 0 l-481 3 112 211 111 212 81 -5 c66 -3
131 5 356 45 151 28 285 50 298 51 20 1 22 -3 22 -51z m3264 -78 l52 0 132
-195 132 -195 -987 0 c-542 0 -984 2 -982 4 2 3 90 38 194 79 259 102 627 253
700 288 67 33 108 69 125 109 l11 27 286 -58 c157 -33 309 -59 337 -59z m406
-670 l0 -80 -2360 0 -2360 0 0 80 0 80 2360 0 2360 0 0 -80z"/>
<path d="M1720 2909 c-59 -23 -60 -27 -60 -346 0 -288 0 -292 23 -318 28 -33
568 -245 623 -245 26 0 43 8 65 29 l29 29 0 289 c0 314 -1 317 -58 347 -40 20
-543 214 -572 220 -14 3 -36 1 -50 -5z m358 -324 l122 -48 0 -149 0 -148 -32
13 c-18 8 -95 38 -170 67 l-138 53 0 148 0 149 48 -19 c26 -10 102 -40 170
-66z"/>
<path d="M2898 2741 c-27 -24 -33 -36 -33 -71 0 -35 6 -47 33 -71 38 -34 74
-37 120 -9 60 37 64 109 10 155 -41 35 -88 33 -130 -4z"/>
</g>
</svg>
