<?xml version="1.0" standalone="no"?>
<!DOCTYPE svg PUBLIC "-//W3C//DTD SVG 20010904//EN"
 "http://www.w3.org/TR/2001/REC-SVG-20010904/DTD/svg10.dtd">
<svg version="1.0" xmlns="http://www.w3.org/2000/svg"
 width="150px" height="150px" viewBox="0 0 512.000000 512.000000"
 preserveAspectRatio="xMidYMid meet">

<g transform="translate(0.000000,512.000000) scale(0.100000,-0.100000)"
fill="#000000" stroke="none">
<path d="M1215 3465 c-368 -68 -661 -358 -732 -722 l-18 -93 -72 0 -73 0 0
-90 0 -90 73 0 72 0 18 -93 c33 -171 108 -314 235 -448 172 -182 375 -274 627
-286 240 -10 455 65 644 225 177 151 311 428 311 646 0 76 17 123 61 171 107
116 291 116 398 0 44 -48 61 -95 61 -171 0 -165 80 -377 198 -526 136 -171
323 -285 542 -330 76 -16 119 -19 215 -15 256 12 452 102 626 285 128 135 203
278 236 449 l18 93 73 0 72 0 0 90 0 90 -72 0 -73 0 -18 93 c-33 171 -108 314
-235 448 -173 183 -373 274 -627 286 -239 10 -455 -65 -643 -224 -104 -89
-209 -243 -258 -378 -9 -27 -18 -51 -19 -53 -1 -1 -28 13 -60 32 -85 52 -149
71 -235 71 -86 0 -150 -19 -235 -71 -32 -19 -59 -33 -60 -32 0 2 -13 35 -28
74 -111 288 -365 502 -672 565 -104 22 -247 23 -350 4z m360 -160 c188 -50
372 -188 467 -352 229 -393 79 -890 -327 -1084 -100 -48 -177 -68 -285 -76
-402 -27 -757 268 -811 675 -53 395 233 780 632 851 74 14 251 6 324 -14z
m2360 -1 c367 -99 612 -458 567 -829 -40 -321 -260 -575 -573 -661 -89 -25
-290 -25 -379 -1 -343 93 -579 397 -580 745 -1 369 253 679 620 758 81 17 261
11 345 -12z"/>
</g>
</svg>
