<?xml version="1.0" encoding="UTF-8"?>
<!DOCTYPE svg PUBLIC "-//W3C//DTD SVG 1.1//EN" "http://www.w3.org/Graphics/SVG/1.1/DTD/svg11.dtd">
<svg xmlns="http://www.w3.org/2000/svg" version="1.1" width="225px" height="225px" style="shape-rendering:geometricPrecision; text-rendering:geometricPrecision; image-rendering:optimizeQuality; fill-rule:evenodd; clip-rule:evenodd" xmlns:xlink="http://www.w3.org/1999/xlink">
<g><path style="opacity:1" fill="#fcfcfc" d="M -0.5,-0.5 C 34.1667,-0.5 68.8333,-0.5 103.5,-0.5C 54.2992,6.04015 21.1325,32.7068 4,79.5C 2.53818,86.9788 1.03818,94.3121 -0.5,101.5C -0.5,67.5 -0.5,33.5 -0.5,-0.5 Z"/></g>
<g><path style="opacity:1" fill="#fcfcfc" d="M 121.5,-0.5 C 155.833,-0.5 190.167,-0.5 224.5,-0.5C 224.5,34.5 224.5,69.5 224.5,104.5C 218.557,55.7117 192.557,22.5451 146.5,5C 138.075,2.95089 129.741,1.11755 121.5,-0.5 Z"/></g>
<g><path style="opacity:1" fill="#030504" d="M 103.5,-0.5 C 109.5,-0.5 115.5,-0.5 121.5,-0.5C 129.741,1.11755 138.075,2.95089 146.5,5C 192.557,22.5451 218.557,55.7117 224.5,104.5C 224.5,110.167 224.5,115.833 224.5,121.5C 218.607,166.904 194.607,198.737 152.5,217C 141.306,220.803 129.973,223.303 118.5,224.5C 112.167,224.5 105.833,224.5 99.5,224.5C 54.2074,217.252 23.0407,192.252 6,149.5C 3.10572,139.518 0.939051,129.518 -0.5,119.5C -0.5,113.5 -0.5,107.5 -0.5,101.5C 1.03818,94.3121 2.53818,86.9788 4,79.5C 21.1325,32.7068 54.2992,6.04015 103.5,-0.5 Z"/></g>
<g><path style="opacity:1" fill="#fcfcfc" d="M 100.5,13.5 C 151.527,11.9113 186.693,34.5779 206,81.5C 215.583,114.678 210.083,145.012 189.5,172.5C 179.546,152.854 163.879,140.354 142.5,135C 124.853,133.597 107.186,133.264 89.5,134C 64.1613,136.841 45.8279,149.674 34.5,172.5C 14.7794,146.398 8.94606,117.398 17,85.5C 30.8157,45.1806 58.6491,21.1806 100.5,13.5 Z"/></g>
<g><path style="opacity:1" fill="#030504" d="M 106.5,41.5 C 129.372,40.8852 144.872,51.2185 153,72.5C 157.351,96.9671 148.185,114.134 125.5,124C 99.2865,129.976 81.1198,120.476 71,95.5C 67.0191,66.9989 78.8524,48.9989 106.5,41.5 Z"/></g>
<g><path style="opacity:1" fill="#fcfcfc" d="M -0.5,119.5 C 0.939051,129.518 3.10572,139.518 6,149.5C 23.0407,192.252 54.2074,217.252 99.5,224.5C 66.1667,224.5 32.8333,224.5 -0.5,224.5C -0.5,189.5 -0.5,154.5 -0.5,119.5 Z"/></g>
<g><path style="opacity:1" fill="#fcfcfc" d="M 224.5,121.5 C 224.5,155.833 224.5,190.167 224.5,224.5C 189.167,224.5 153.833,224.5 118.5,224.5C 129.973,223.303 141.306,220.803 152.5,217C 194.607,198.737 218.607,166.904 224.5,121.5 Z"/></g>
</svg>
