<?xml version="1.0" encoding="UTF-8"?>
<!DOCTYPE svg PUBLIC "-//W3C//DTD SVG 1.1//EN" "http://www.w3.org/Graphics/SVG/1.1/DTD/svg11.dtd">
<svg xmlns="http://www.w3.org/2000/svg" version="1.1" width="510px" height="510px" style="shape-rendering:geometricPrecision; text-rendering:geometricPrecision; image-rendering:optimizeQuality; fill-rule:evenodd; clip-rule:evenodd" xmlns:xlink="http://www.w3.org/1999/xlink">
<g><path style="opacity:0.966" fill="#000000" d="M 251.5,78.5 C 308.653,79.8108 349.486,106.144 374,157.5C 376.544,163.297 378.377,169.297 379.5,175.5C 422.528,181.398 455.361,202.731 478,239.5C 500,282.167 500,324.833 478,367.5C 447.701,414.648 404.367,435.982 348,431.5C 336.5,431.333 325,431.167 313.5,431C 304.518,426.527 301.351,419.36 304,409.5C 305.833,405 309,401.833 313.5,400C 331.833,399.667 350.167,399.333 368.5,399C 409.584,396.567 438.751,376.734 456,339.5C 471.564,290.859 458.73,251.693 417.5,222C 400.173,212.067 381.506,207.067 361.5,207C 356.427,205.594 352.927,202.428 351,197.5C 340.378,144.874 308.378,116.207 255,111.5C 212.371,114.305 182.704,135.305 166,174.5C 163.481,183.581 160.815,192.581 158,201.5C 156.062,204.106 153.562,205.939 150.5,207C 100.629,207.985 67.4628,231.819 51,278.5C 41.7896,323.548 55.9563,359.048 93.5,385C 108.623,393.93 124.956,398.597 142.5,399C 160.833,399.333 179.167,399.667 197.5,400C 206.482,404.473 209.649,411.64 207,421.5C 205.167,426 202,429.167 197.5,431C 174.167,431.667 150.833,431.667 127.5,431C 73.283,422.118 37.4497,391.618 20,339.5C 6.49383,281.679 22.9938,234.513 69.5,198C 88.2066,185.263 108.873,177.763 131.5,175.5C 144.496,127.721 174.83,96.8878 222.5,83C 232.214,80.8236 241.881,79.3236 251.5,78.5 Z"/></g>
<g><path style="opacity:0.978" fill="#000000" d="M 249.5,207.5 C 255.105,206.908 260.439,207.741 265.5,210C 293.333,237.833 321.167,265.667 349,293.5C 353.718,303.31 351.885,311.476 343.5,318C 337.355,320.185 331.355,319.852 325.5,317C 307.667,299.167 289.833,281.333 272,263.5C 271.667,332.167 271.333,400.833 271,469.5C 268.193,476.487 263.027,479.82 255.5,479.5C 247.973,479.82 242.807,476.487 240,469.5C 239.667,400.833 239.333,332.167 239,263.5C 221.167,281.333 203.333,299.167 185.5,317C 175.69,321.718 167.524,319.885 161,311.5C 158.815,305.355 159.148,299.355 162,293.5C 190.757,264.242 219.923,235.575 249.5,207.5 Z"/></g>
</svg>
