<?xml version="1.0" standalone="no"?>
<!DOCTYPE svg PUBLIC "-//W3C//DTD SVG 20010904//EN"
 "http://www.w3.org/TR/2001/REC-SVG-20010904/DTD/svg10.dtd">
<svg version="1.0" xmlns="http://www.w3.org/2000/svg"
 width="120px" height="120px" viewBox="0 0 512.000000 512.000000"
 preserveAspectRatio="xMidYMid meet">

<g transform="translate(0.000000,512.000000) scale(0.100000,-0.100000)"
fill="#000000" stroke="none">
<path d="M383 4906 c-181 -44 -334 -202 -372 -384 -16 -75 -16 -3169 0 -3244
39 -187 200 -348 387 -387 29 -6 109 -11 177 -11 l125 0 0 -115 c0 -62 5 -138
11 -167 39 -187 200 -348 387 -387 75 -16 3549 -16 3624 0 187 39 348 200 387
387 16 75 16 3169 0 3244 -39 187 -200 348 -387 387 -29 6 -109 11 -177 11
l-125 0 0 115 c0 62 -5 138 -11 167 -39 187 -200 348 -387 387 -81 17 -3568
14 -3639 -3z m3658 -212 c66 -31 114 -78 146 -142 27 -55 28 -63 31 -244 l4
-188 -2011 0 -2011 0 0 168 c0 188 10 242 59 309 37 50 81 83 146 105 47 16
160 17 1820 15 l1770 -2 46 -21z m700 -680 c66 -31 114 -78 146 -142 27 -55
28 -63 31 -244 l4 -188 -251 0 -251 0 0 301 0 301 138 -4 c112 -3 145 -7 183
-24z m-523 -1401 l-3 -1308 -28 -57 c-32 -64 -80 -111 -146 -142 -45 -21 -61
-21 -739 -26 l-694 -5 -24 -28 c-33 -38 -33 -96 0 -134 l24 -28 674 -3 c472
-2 691 0 733 8 191 36 354 197 394 388 8 37 11 349 11 1007 l0 955 250 0 250
0 -2 -1307 -3 -1308 -28 -57 c-32 -64 -80 -111 -146 -142 l-46 -21 -1785 0
-1785 0 -46 21 c-66 31 -114 78 -146 142 -25 52 -28 69 -31 184 l-4 127 452 3
452 3 24 28 c33 38 33 96 0 134 l-24 28 -689 5 c-673 5 -689 5 -734 26 -66 31
-114 78 -146 142 l-28 57 -3 1308 -2 1307 2010 0 2010 0 -2 -1307z"/>
<path d="M591 4506 c-87 -48 -50 -186 49 -186 51 0 100 49 100 99 0 75 -83
124 -149 87z"/>
<path d="M1071 4506 c-87 -48 -50 -186 49 -186 51 0 100 49 100 99 0 75 -83
124 -149 87z"/>
<path d="M1551 4506 c-87 -48 -50 -186 49 -186 51 0 100 49 100 99 0 75 -83
124 -149 87z"/>
<path d="M2411 4506 c-67 -37 -65 -143 4 -174 37 -17 1373 -17 1410 0 29 13
55 55 55 88 0 33 -26 75 -55 88 -40 18 -1381 16 -1414 -2z"/>
<path d="M2030 3605 c-117 -20 -211 -51 -328 -110 -317 -160 -539 -463 -597
-816 -99 -609 318 -1185 930 -1284 605 -99 1181 320 1280 930 69 422 -120 857
-477 1103 -223 154 -539 223 -808 177z m421 -219 c173 -51 289 -118 408 -237
118 -118 184 -232 238 -408 24 -77 27 -102 27 -241 0 -139 -3 -164 -27 -241
-54 -176 -120 -290 -238 -408 -118 -118 -232 -185 -408 -238 -76 -23 -104 -26
-236 -27 -164 -1 -233 13 -375 73 -194 83 -382 267 -465 456 -60 136 -78 220
-79 375 -1 112 3 162 18 220 93 368 378 632 753 700 91 17 289 4 384 -24z"/>
<path d="M1961 3065 c-53 -16 -107 -66 -132 -120 -17 -37 -19 -71 -19 -435 0
-362 2 -398 19 -435 46 -101 154 -154 256 -126 22 6 175 97 340 203 355 229
360 234 360 358 0 124 -5 129 -359 356 -165 106 -316 197 -336 203 -47 14 -74
13 -129 -4z m355 -366 c157 -99 274 -180 274 -189 0 -16 -532 -362 -559 -364
-14 -1 -16 39 -19 354 -1 195 0 361 3 368 3 8 10 12 17 10 6 -2 134 -83 284
-179z"/>
<path d="M2164 1071 c-56 -24 -72 -109 -30 -158 20 -23 32 -28 71 -28 60 0 95
35 95 95 0 70 -72 118 -136 91z"/>
</g>
</svg>
